<svg id="Capa_1" enable-background="new 0 0 512 512" height="512" viewBox="0 0 512 512" width="512" xmlns="http://www.w3.org/2000/svg"><g><g><path d="m339.048 101.783c-16.92-33.729-41.589-63.449-71.339-85.938-6.93-5.24-16.49-5.24-23.42 0-33.707 25.481-60.67 60.122-77.198 98.508-7.89 18.21-13.61 37.439-17.03 57.139l-.01.01c-3.451 19.828-4.506 39.787-3.33 59.099 12.225-6.099 24.846-11.196 38.379-15.39.01-24.87 4.1-48.879 12.2-71.689 5.695-16.093 13.461-31.818 23.33-46.589 10.02-15.02 21.95-28.699 35.369-40.539 13.42 11.84 25.349 25.52 35.369 40.539 18.87 3.32 36.839 9.26 53.539 17.42-1.829-4.25-3.789-8.44-5.859-12.57z" fill="#80dfb5"/><path d="m344.908 114.353c-16.7-8.16-34.669-14.1-53.539-17.42-11.49-2.03-23.31-3.09-35.369-3.09-12.06 0-23.88 1.06-35.369 3.09-9.868 14.771-17.635 30.496-23.33 46.589 18.24-7 38.029-10.84 58.699-10.84 20.68 0 40.459 3.84 58.699 10.84h.01c17.34 6.65 33.279 16.17 47.229 27.969l.01.01c27.859 23.57 47.799 56.219 55.189 93.358 15.65 13.34 29.659 28.519 41.579 45.099 5.29-84.246-41.41-160.215-113.808-195.605z" fill="#fbe29f"/><g><path d="m220.631 96.933c-9.868 14.771-17.635 30.496-23.33 46.589 10.367-3.979 21.237-6.933 32.483-8.745 4.363-10.206 9.653-19.988 15.804-29.196 2.689-4.031 5.541-7.935 8.53-11.718-11.407.105-22.597 1.146-33.487 3.07z" fill="#f8d070"/></g><path d="m256.23 204.131c-.15-.01-.31-.01-.46 0-59.515.693-116.245 22.706-160.907 60.729-2.07 10.39-3.15 21.13-3.15 32.109 0 8.26.61 16.37 1.8 24.3 37.602-45.725 96.831-77.47 162.487-78.298 22.98.29 45.599 4.32 67.309 11.97 2.39-12.92 3.59-26.16 3.59-39.639v-.09c-22.92-7.081-46.619-10.801-70.669-11.081z" fill="#80dfb5"/><path d="m93.513 321.269c-1.19-7.93-1.8-16.04-1.8-24.3 0-10.98 1.08-21.72 3.15-32.109 7.39-37.139 27.329-69.789 55.189-93.358l.01-.01c3.42-19.7 9.14-38.929 17.03-57.139-67.569 33.029-114.218 102.478-114.218 182.616 0 4.36.14 8.69.41 12.99 1.25 19.69 5.32 38.619 11.81 56.409 8.69 23.85 21.73 45.619 38.169 64.359 17.468.11 34.216-1.96 49.939-5.69-31.489-25.33-53.479-62.009-59.689-103.768z" fill="#fbe29f"/><path d="m504.445 435.067c-4.79-63.843-34.983-125.605-87.308-170.207-15.878-13.518-33.106-24.905-51.859-34.259-.83 13.8-2.79 27.509-5.82 40.939 22.092 12.713 42.25 29.326 59.029 49.729 11.047 13.409 20.848 28.765 28.419 45.099 8.37 17.99 14.16 37.119 17.1 56.569-17.87 5.05-36.539 7.68-55.269 7.79-11.94 13.62-25.669 25.64-40.819 35.669 39.658 6.548 83.381 3.171 123.828-11.64 8.159-2.99 13.349-11.03 12.699-19.689z" fill="#80dfb5"/><path d="m296.75 207.918c.094 2.451.147 4.912.148 7.382 0 10.72-.899 21.352-2.656 31.669 9.833 1.953 19.537 4.612 29.066 7.97 2.39-12.919 3.59-26.159 3.59-39.639v-.09c-9.914-3.062-19.976-5.493-30.148-7.292z" fill="#36d39a"/><path d="m365.278 230.601c-.83 13.8-2.79 27.509-5.82 40.939 9.201 5.295 18.06 11.276 26.485 17.916 3.699-13.741 6.372-27.832 7.984-42.166-9.14-6.143-18.672-11.713-28.649-16.689z" fill="#36d39a"/><path d="m361.948 171.502-.01-.01c-13.95-11.8-29.889-21.32-47.229-27.969 8.09 22.81 12.18 46.819 12.19 71.689v.09c0 13.48-1.2 26.719-3.59 39.639-8.399 45.602-31.767 87.49-66.339 118.391 10.612 7.994 22.109 14.812 33.343 21.995l.016-.009c46.119-44.809 71.297-104.008 74.949-164.717 1.176-19.304.123-39.263-3.33-59.099z" fill="#80dfb5"/><path d="m313.149 450.986c16.65-6.19 32.039-15.01 45.649-25.949-23.519-5.56-45.879-15.14-66.748-28.599-30.745-19.829-58.087-32.621-84.379-85.029-9.02-17.98-15.37-36.869-18.98-56.469-12.427 4.314-24.657 9.985-36.149 16.6 4.48 19.9 11.33 39.189 20.41 57.279 12.42 24.759 29.009 47.349 48.719 66.499 22.086 21.458 49.756 35.88 79.344 50.172z" fill="#80dfb5"/><path d="m185.101 215.211c.004-10.771.777-21.381 2.306-31.802-13.817 3.649-27.354 8.348-40.491 14.049-.785 11.159-.858 22.255-.195 33.143 12.226-6.099 24.847-11.197 38.38-15.39z" fill="#36d39a"/><path d="m188.691 254.94c-12.427 4.314-24.657 9.985-36.149 16.6 2.278 10.119 5.176 20.078 8.661 29.803 11.07-6.926 22.848-12.686 35.084-17.171-3.229-9.545-5.766-19.297-7.596-29.232z" fill="#36d39a"/><path d="m418.487 321.269c-6.21 41.759-28.199 78.439-59.689 103.768-13.61 10.94-28.999 19.76-45.649 25.949-17.81 6.64-37.059 10.26-57.149 10.26s-39.339-3.62-57.149-10.26c-17.891 7.284-36.049 12.318-54.769 15.41 32.109 21.29 70.599 33.689 111.918 33.689 59.353 0 114.513-25.756 152.737-69.359 16.44-18.74 29.479-40.509 38.169-64.359-7.572-16.336-17.373-31.691-28.419-45.098z" fill="#fbe29f"/><g><path d="m431.138 399.756c6.221-10.559 11.518-21.723 15.769-33.388-7.573-16.337-17.374-31.692-28.419-45.1-1.836 12.346-5.061 24.243-9.493 35.539 6.034 8.653 11.379 17.867 15.713 27.216 2.398 5.159 4.54 10.41 6.43 15.733z" fill="#f8d070"/></g><g><path d="m153.202 425.037c-10.46-8.414-19.864-18.086-27.997-28.774-9.794 1.629-19.709 2.469-29.613 2.469l-1.153-.004c-4.874-.028-9.733-.256-14.564-.678 6.721 11.666 14.559 22.612 23.389 32.677 17.467.11 34.215-1.96 49.938-5.69z" fill="#f8d070"/></g><path d="m221.683 395.329c-21.667 13.854-42.775 23.631-68.481 29.708-15.726 3.73-32.474 5.8-49.939 5.69-18.73-.11-37.399-2.74-55.269-7.79 2.94-19.45 8.73-38.579 17.1-56.569-6.49-17.79-10.56-36.719-11.81-56.409-4.33 6.02-8.38 12.22-12.14 18.59-19.18 32.499-30.799 69.329-33.589 106.518-.65 8.66 4.54 16.7 12.7 19.69 62.742 22.968 132.76 18.733 190.731-9.267 14.019-6.771 31.791-15.824 45.015-23.957-12.295-7.562-23.832-16.018-34.318-26.204z" fill="#80dfb5"/><g fill="#36d39a"><path d="m308.31 371.227c-3.49-2.251-6.901-4.393-10.2-6.463-7.2-4.52-13.836-8.685-20.095-13.218-6.452 7.737-13.48 15.024-21.044 21.785 10.612 7.994 22.109 14.812 33.343 21.995l.016-.009c7.364-7.154 14.187-14.679 20.481-22.515-.836-.52-1.672-1.041-2.501-1.575z"/><path d="m256 421.533c-12.294-7.562-23.831-16.018-34.317-26.204-9.028 5.772-17.963 10.827-27.171 15.211 2.052 2.125 4.129 4.23 6.253 6.293 8.016 7.788 16.613 14.732 25.566 21.045 10.283-5.238 20.961-10.989 29.669-16.345z"/></g></g><g><path d="m17.675 461.786c38.387 14.053 81.283 19.034 124.81 12.504 33.896 21.78 73.075 33.282 113.514 33.282 40.628 0 79.96-11.803 113.552-33.349 12.315 1.88 24.875 2.823 37.489 2.822 29.736 0 59.735-5.172 87.286-15.26 11.258-4.126 18.495-15.349 17.598-27.293-3.482-46.41-19.696-89.862-45.581-126.734 4.211-83.604-40.89-161.164-115.659-198.915-1.537-3.455-3.187-6.953-4.931-10.435 0 0-.001-.001-.001-.002-17.434-34.755-42.857-65.378-73.519-88.558-9.559-7.227-22.909-7.227-32.466 0-33.552 25.364-61.329 60.452-78.458 99.014-27.555 13.935-52.153 34.112-71.257 58.527-2.553 3.262-1.977 7.976 1.285 10.528 3.262 2.553 7.976 1.977 10.528-1.285 14.108-18.031 31.436-33.586 50.803-45.71-4.063 11.984-7.29 24.492-9.521 36.61-36.343 31.749-58.936 78.337-58.936 129.424 0 46.132 18.443 90.751 52.635 123.656-10.151 1.631-19.396 2.463-30.174 2.573-29.19-34.442-46.301-78.686-46.301-126.229 0-33.566 8.688-66.703 25.125-95.828 2.036-3.607.762-8.182-2.846-10.218s-8.182-.762-10.218 2.846c-17.704 31.37-27.061 67.056-27.061 103.2 0 3.558.117 7.171.299 10.779-27.032 38.432-42.303 82.877-45.595 126.757-.897 11.945 6.34 23.168 17.6 27.294zm147.034 8.147c12.29-2.986 23.142-6.539 34.275-10.933 18.277 6.46 37.443 9.733 57.017 9.733 79.241 0 147.537-54.259 166.56-129.643 5.994 8.617 11.161 17.219 16.199 27.644-28.567 74.662-100.905 125.838-182.76 125.838-32.06 0-63.265-7.781-91.291-22.639zm14.946-144.492c-7.937-15.811-14.145-32.626-18.49-50.06 7.125-3.835 14.464-7.259 21.973-10.251 3.899 17.126 9.879 33.782 17.829 49.629 16.372 32.634 33.322 50.609 50.916 64.065 3.554 3.279 20.495 14.049 24.61 16.634 17.998 11.321 35.303 23.196 65.313 32.659-8.096 5.358-19.081 11.142-28.417 14.732l-9.198-4.167c-44.9-21.691-90.27-44.927-124.536-113.241zm-80.298-21.983c-.467-11.504.257-22.861 2.387-34.602 43.544-36.28 98.167-56.588 154.114-57.239.047 0 .095-.001.143-.003.047.001.095.002.143.003 21.407.249 42.633 3.328 63.18 9.158-.197 7.635-.845 16.105-2.01 24.279-19.877-6.109-40.43-9.335-61.218-9.597-.063 0-.126 0-.189 0-56.727.716-114.357 24.423-156.55 68.001zm103.885-154.154c16.908-6.063 34.638-9.136 52.758-9.136 18.123 0 35.857 3.074 52.768 9.14 5.998 17.887 9.477 36.61 10.383 55.873-20.442-5.421-41.48-8.303-62.685-8.562-.311-.013-.622-.013-.932 0-21.24.259-42.293 3.197-62.691 8.61.899-19.253 4.384-38.008 10.399-55.925zm151.773 26.179c2.948 18.119 3.883 36.49 2.777 54.654-.363 3.596-.936 18.846-5.649 39.739-4.193 18.57-10.315 36.064-18.587 53.061-1.813 3.725-.263 8.213 3.461 10.026 3.725 1.813 8.213.263 10.026-3.461 7.255-14.906 13.011-30.362 17.271-46.254 17.509 11.188 33.013 24.675 46.225 40.21-6.219 36.449-25.117 69.375-53.596 93.38-19.073-4.881-37.429-12.578-54.707-22.924 11.121-11.649 21.165-24.36 29.901-37.922 2.243-3.482 1.239-8.124-2.244-10.367-3.48-2.242-8.123-1.239-10.367 2.244-8.776 13.623-18.936 26.351-30.253 37.904-6.07-3.819-14.437-9.025-20.495-13.225 40.33-39.369 65.622-94.817 65.622-157.352-.269-4.126.638-27.496-7.616-58.128 10.532 5.379 19.901 11.587 28.231 18.415zm17.155 16.321c14.024 15.508 24.855 33.674 31.775 53.287-9.858-7.015-20.21-13.344-30.955-18.955.478-11.417.21-22.893-.82-34.332zm-157.796 116.228c-7.68-15.309-13.383-31.423-17-47.99 18.934-6.005 38.706-9.324 58.626-9.585 19.929.261 39.621 3.456 58.64 9.487-8.598 39.451-28.969 75.781-58.028 103.483-14.696-12.083-28.53-28.071-42.238-55.395zm77.79 141.485c-11.781 2.796-23.882 4.216-36.164 4.216-12.287 0-24.394-1.421-36.18-4.22 11.097-5.458 24.656-12.429 36.141-19.219 11.617 6.931 23.784 13.158 36.203 19.223zm163.31-32.095c-9.969 2.455-20.141 4.121-30.417 5.017 8.515-11.426 15.812-23.62 21.822-36.485 3.723 10.269 6.607 20.787 8.595 31.468zm41.493 18.192c.397 5.288-2.811 10.258-7.8 12.086-31.936 11.694-67.361 16.363-101.525 13.56 8.868-7.118 17.33-15.164 24.499-23.092 18.306-.39 36.423-3.086 53.905-8.026 3.637-1.028 5.941-4.602 5.376-8.338-9.309-61.59-45.717-118.886-103.478-153.972 1.693-8.326 2.98-16.73 3.875-25.321 71.786 39.916 119.09 112.359 125.148 193.103zm-45.526-147.082c-8.147-9.533-17.388-18.936-27.477-27.706-16.728-77.725-85.873-135.658-167.964-135.658-15.592 0-30.926 2.078-45.768 6.19 4.14-9.331 8.676-17.946 14.904-27.59 38.549-6.143 79.382-.817 116.479 17.309 65.244 31.893 106.767 96.157 109.826 167.455zm-214.428-201.338c5.854-7.34 12.199-14.247 18.987-20.66 6.788 6.413 13.133 13.32 18.987 20.66-12.607-1.127-25.367-1.127-37.974 0zm11.8-65.381c4.231-3.199 10.142-3.2 14.374 0 27.182 20.549 49.99 47.328 66.26 77.729-10.533-3.947-21.783-7.121-33.632-9.431-10.017-14.549-21.731-27.778-34.853-39.356-2.835-2.501-7.089-2.501-9.924 0-45.292 39.959-71.883 97.275-73.37 158.95-8.179 2.716-16.087 5.779-23.883 9.253-.534-35.785 6.837-70.827 20.195-101.654 16.022-37.21 42.598-71.123 74.833-95.491zm-108.984 169.991c-1.029 11.437-1.297 22.909-.821 34.323-10.694 5.576-21.043 11.891-30.946 18.938 6.922-19.603 17.75-37.76 31.767-53.261zm-38.365 131.664c13.34-15.679 29.008-29.197 46.253-40.193 4.538 16.984 10.749 33.391 18.53 48.893 11.387 22.699 25.989 43.417 43.467 61.715-18.28 10.851-35.56 18.093-54.654 22.956-28.476-24.004-47.373-56.921-53.596-93.371zm-36.344 62.487c6.01 12.864 13.307 25.058 21.822 36.484-10.276-.896-20.447-2.562-30.417-5.017 1.989-10.681 4.873-21.199 8.595-31.467zm-50.087 49.659c2.81-37.452 14.785-73.514 33.153-104.251 1.855 11.239 4.784 23.041 8.821 34.643-8.007 17.866-13.531 36.622-16.429 55.797-.565 3.737 1.739 7.311 5.376 8.338 56.208 15.884 118.465 9.128 174.812-25.402 6.362 5.698 12.761 10.83 20.949 16.451-11.537 6.469-24.3 12.852-33.992 17.533-54.893 26.516-122.507 31.815-184.889 8.978-4.99-1.829-8.198-6.799-7.801-12.087z"/></g></g></svg>